<?xml version="1.0" encoding="UTF-8"?>
<svg width="40px" height="40px" viewBox="0 0 40 40" version="1.1" xmlns="http://www.w3.org/2000/svg" xmlns:xlink="http://www.w3.org/1999/xlink">
    <title>alipay-outlined</title>
    <g id="页面-1" stroke="none" stroke-width="1" fill="none" fill-rule="evenodd">
        <g id="个人中心" transform="translate(-201.000000, -632.000000)" fill="#0B8CE9" fill-rule="nonzero">
            <g id="alipay-outlined" transform="translate(201.000000, 632.000000)">
                <rect id="矩形" opacity="0" x="0" y="0" width="40" height="40"></rect>
                <path d="M30.6797018,24.0173708 C29.187596,23.5167218 27.1826994,22.7482837 24.9541797,21.9371546 C26.2959182,19.5969113 27.3639112,16.9306639 28.065625,14.0354375 L20.7130522,14.0354375 L20.7130522,11.3730712 L29.7196647,11.3730712 L29.7196647,9.88664802 L20.7130522,9.88664802 L20.7130522,5.45454545 L17.0348379,5.45454545 C16.3909577,5.45454545 16.3909577,6.09491054 16.3909577,6.09491054 L16.3909577,9.89052902 L7.28410026,9.89052902 L7.28410026,11.3769522 L16.3948133,11.3769522 L16.3948133,14.0393185 L8.87259529,14.0393185 L8.87259529,15.5257417 L23.4620739,15.5257417 C22.9300052,17.373098 22.2128691,19.1079052 21.360788,20.6835914 C16.6261475,19.1156672 11.5753502,17.842699 8.4022157,18.6266611 C6.37418564,19.1311912 5.06714725,20.0277023 4.29603316,20.9669044 C0.772041764,25.274815 3.29744041,31.8181818 10.742547,31.8181818 C15.1417529,31.8143008 19.3828804,29.3459845 22.6678264,25.286458 C27.5682564,27.6538683 37.2727273,31.7172758 37.2727273,31.7172758 L37.2727273,25.9229421 C37.2727273,25.9229421 36.054367,25.8259171 30.6797018,24.0173708 Z M10.0485443,29.3071745 C4.24591075,29.3071745 2.53018189,24.7159509 5.39872631,22.2010626 C6.35490778,21.3511235 8.10533677,20.9358564 9.03838482,20.8427124 C12.4852648,20.5011844 15.6776771,21.8207245 19.4445695,23.6680808 C16.791937,27.1415762 13.4183129,29.3071745 10.0485443,29.3071745 L10.0485443,29.3071745 Z" id="形状"></path>
            </g>
        </g>
    </g>
</svg>