<?xml version="1.0" encoding="UTF-8"?>
<svg width="30px" height="30px" viewBox="0 0 30 30" version="1.1" xmlns="http://www.w3.org/2000/svg" xmlns:xlink="http://www.w3.org/1999/xlink">
    <title>creditcard-filled</title>
    <g id="页面-1" stroke="none" stroke-width="1" fill="none" fill-rule="evenodd">
        <g id="账单" transform="translate(-1125.000000, -60.000000)" fill="#004588" fill-rule="nonzero">
            <g id="creditcard-filled" transform="translate(1125.000000, 60.000000)">
                <rect id="矩形" opacity="0" x="0" y="0" width="30" height="30"></rect>
                <path d="M28.9285714,3 L1.07142857,3 C0.478794643,3 0,3.47879464 0,4.07142857 L0,9.42857143 L30,9.42857143 L30,4.07142857 C30,3.47879464 29.5212054,3 28.9285714,3 Z M0,25.5 C0,26.0926339 0.478794643,26.5714286 1.07142857,26.5714286 L28.9285714,26.5714286 C29.5212054,26.5714286 30,26.0926339 30,25.5 L30,12.375 L0,12.375 L0,25.5 Z M19.3861607,19.3392857 C19.3861607,19.1919643 19.5066964,19.0714286 19.6540179,19.0714286 L25.1785714,19.0714286 C25.3258929,19.0714286 25.4464286,19.1919643 25.4464286,19.3392857 L25.4464286,21.75 C25.4464286,21.8973214 25.3258929,22.0178571 25.1785714,22.0178571 L19.6540179,22.0178571 C19.5066964,22.0178571 19.3861607,21.8973214 19.3861607,21.75 L19.3861607,19.3392857 Z" id="形状"></path>
            </g>
        </g>
    </g>
</svg>