<?xml version="1.0" encoding="UTF-8"?>
<svg width="30px" height="30px" viewBox="0 0 30 30" version="1.1" xmlns="http://www.w3.org/2000/svg" xmlns:xlink="http://www.w3.org/1999/xlink">
    <title>mail-filled备份</title>
    <g id="页面-1" stroke="none" stroke-width="1" fill="none" fill-rule="evenodd">
        <g id="个人中心" transform="translate(-1536.000000, -536.000000)" fill="#004588" fill-rule="nonzero">
            <g id="mail-filled备份" transform="translate(1536.000000, 536.000000)">
                <rect id="矩形" opacity="0" x="0" y="0" width="30" height="30"></rect>
                <path d="M27.1875,4.6875 L2.8125,4.6875 C2.29394531,4.6875 1.875,5.10644531 1.875,5.625 L1.875,24.375 C1.875,24.8935547 2.29394531,25.3125 2.8125,25.3125 L27.1875,25.3125 C27.7060547,25.3125 28.125,24.8935547 28.125,24.375 L28.125,5.625 C28.125,5.10644531 27.7060547,4.6875 27.1875,4.6875 Z M24.8203125,7.87792969 L15.5771484,15.0703125 C15.3486328,15.2490234 15.0292969,15.2490234 14.8007812,15.0703125 L5.5546875,7.87792969 C5.50195312,7.83691406 5.47265625,7.77539062 5.47265625,7.7109375 C5.47265625,7.59375 5.56640625,7.5 5.68359375,7.5 L24.6914062,7.5 C24.7558594,7.5 24.8173828,7.52929688 24.8583984,7.58203125 C24.9287109,7.67285156 24.9140625,7.8046875 24.8203125,7.87792969 Z" id="形状"></path>
            </g>
        </g>
    </g>
</svg>