<?xml version="1.0" encoding="utf-8"?>
<!-- Generator: Adobe Illustrator 25.0.0, SVG Export Plug-In . SVG Version: 6.00 Build 0)  -->
<svg version="1.1" id="_图层_1" xmlns="http://www.w3.org/2000/svg" xmlns:xlink="http://www.w3.org/1999/xlink" x="0px" y="0px"
	 viewBox="0 0 453.7 60.3" style="enable-background:new 0 0 453.7 60.3;" xml:space="preserve">
<style type="text/css">
	.st0{clip-path:url(#SVGID_2_);}
	.st1{fill:#004588;}
	.st2{clip-path:url(#SVGID_4_);}
	.st3{clip-path:url(#SVGID_6_);}
	.st4{clip-path:url(#SVGID_8_);}
	.st5{fill:#31B0DA;}
	.st6{clip-path:url(#SVGID_10_);}
	.st7{clip-path:url(#SVGID_12_);}
	.st8{clip-path:url(#SVGID_14_);}
	.st9{fill:#143475;}
	.st10{clip-path:url(#SVGID_16_);}
	.st11{clip-path:url(#SVGID_18_);}
	.st12{fill:none;stroke:#004588;stroke-miterlimit:10;}
</style>
<g>
	<defs>
		<path id="SVGID_1_" d="M88.1,22.8h20.7c0.4,0,0.7-0.3,0.8-0.7v-0.4c0-1-0.9-1.9-1.9-1.8c0,0,0,0,0,0H88.1c-0.4,0-0.7,0.3-0.8,0.7
			v1.5C87.4,22.5,87.7,22.8,88.1,22.8C88.1,22.8,88.1,22.8,88.1,22.8"/>
	</defs>
	<clipPath id="SVGID_2_">
		<use xlink:href="#SVGID_1_"  style="overflow:visible;"/>
	</clipPath>
	<g class="st0">
		<rect x="87.3" y="19.9" class="st1" width="22.3" height="3"/>
	</g>
</g>
<g>
	<defs>
		<path id="SVGID_3_" d="M85.5,32.3h6.2c-0.5,7.3-4.2,11.8-5.6,12.8c-0.3,0.2-0.4,0.6-0.2,0.9l0.7,1.4c0.2,0.4,0.6,0.5,1,0.3
			c0,0,0,0,0.1,0c1.8-1.3,6.5-6.6,7-15.4h6v9.6c0,1.9,0.6,3.7,1.8,5.2c1.1,1.1,2.5,1.6,4,1.6h0.1c3.3-0.1,5.9-2.7,5.9-6v-0.8
			c0-1-0.8-1.9-1.9-1.9h-0.2c-0.5,0-0.9,0.4-0.9,0.9v1.7c0,1.6-1.3,2.9-2.9,3h-0.1c-0.7,0-1.3-0.2-1.8-0.7c-0.7-0.9-1-1.9-1-3v-9.7
			h7.6v-1.1c0-1-0.8-1.9-1.9-1.9l0,0h-24c-0.4,0-0.8,0.3-0.8,0.8v1.5C84.7,31.9,85,32.3,85.5,32.3"/>
	</defs>
	<clipPath id="SVGID_4_">
		<use xlink:href="#SVGID_3_"  style="overflow:visible;"/>
	</clipPath>
	<g class="st2">
		<rect x="84.7" y="29.2" class="st1" width="27.9" height="19.5"/>
	</g>
</g>
<g>
	<defs>
		<path id="SVGID_5_" d="M120.5,24.9l1.3,0.8c0.3,0.2,0.8,0.1,1-0.2l1.7-2.8h3.7l0.8,1.6c0.5,0.9,1.6,1.3,2.5,0.8c0,0,0,0,0,0l1-0.5
			l-1-2h4.5c0.4,0,0.8-0.3,0.8-0.8v-0.4c0-1-0.8-1.9-1.9-1.9c0,0,0,0,0,0h-8.6l0.5-0.8c0.2-0.3,0.1-0.8-0.2-1l-0.3-0.2
			c-0.9-0.5-2-0.3-2.6,0.6c0,0,0,0,0,0l-3.5,5.7C120,24.2,120.1,24.6,120.5,24.9"/>
	</defs>
	<clipPath id="SVGID_6_">
		<use xlink:href="#SVGID_5_"  style="overflow:visible;"/>
	</clipPath>
	<g class="st3">
		<rect x="120" y="16.9" class="st1" width="16.9" height="9"/>
	</g>
</g>
<g>
	<defs>
		<path id="SVGID_7_" d="M76.3,24.9l1.2,0.8c0.3,0.2,0.8,0.1,1-0.2c0,0,0,0,0,0l4-6.6c0.2-0.3,0.1-0.8-0.2-1L82,17.6
			c-0.8-0.5-2-0.3-2.5,0.6c0,0,0,0,0,0.1l-3.4,5.7C75.9,24.2,76,24.6,76.3,24.9"/>
	</defs>
	<clipPath id="SVGID_8_">
		<use xlink:href="#SVGID_7_"  style="overflow:visible;"/>
	</clipPath>
	<g class="st4">
		<rect x="75.8" y="16.9" class="st5" width="7" height="9"/>
	</g>
</g>
<g>
	<defs>
		<path id="SVGID_9_" d="M138.9,24.9l1.3,0.8c0.3,0.2,0.8,0.1,1-0.2l1.7-2.8h3.7l0.8,1.6c0.5,0.9,1.6,1.3,2.5,0.8c0,0,0,0,0,0l1-0.5
			l-1-2h4.5c0.4,0,0.8-0.3,0.8-0.8v-0.4c0-1-0.8-1.9-1.9-1.9c0,0,0,0,0,0h-8.6l0.5-0.8c0.2-0.3,0.1-0.8-0.2-1l-0.3-0.2
			c-0.9-0.5-2-0.3-2.6,0.6c0,0,0,0,0,0l-3.5,5.7C138.5,24.2,138.6,24.6,138.9,24.9"/>
	</defs>
	<clipPath id="SVGID_10_">
		<use xlink:href="#SVGID_9_"  style="overflow:visible;"/>
	</clipPath>
	<g class="st6">
		<rect x="138.4" y="16.9" class="st1" width="16.9" height="9"/>
	</g>
</g>
<path class="st1" d="M154.8,46.3h-6.7v-3h3.3c0.8,0,1.5-0.7,1.5-1.5V28.1c0-0.8-0.7-1.5-1.5-1.5h-26.2c-1,0-1.9,0.8-1.9,1.9
	c0,0,0,0,0,0v12.8c0,1,0.8,1.9,1.9,1.9c0,0,0,0,0,0h3.7v3h-9.3c-0.4,0-0.7,0.3-0.7,0.7v1.5c0,0.4,0.3,0.7,0.8,0.8h8.9
	c-0.6,1.1-1.5,2.1-2.6,2.7c-0.6,0.4-1.3,0.6-2,0.7c-0.4,0-0.7,0.4-0.7,0.7V55c0,0.4,0.3,0.8,0.7,0.8c0,0,0,0,0.1,0
	c1.2-0.1,2.4-0.5,3.4-1.2c2-1.2,3.5-3,4.1-5.2h13.4V55c0,0.4,0.3,0.8,0.8,0.8h1.5c0.4,0,0.7-0.3,0.7-0.8c0,0,0,0,0,0v-5.7h7.8
	c0.4,0,0.7-0.3,0.7-0.8v-0.4C156.6,47.1,155.8,46.3,154.8,46.3C154.8,46.3,154.8,46.3,154.8,46.3L154.8,46.3L154.8,46.3z
	 M126.4,30.4c0-0.4,0.3-0.8,0.7-0.8c0,0,0,0,0,0h22c0.4,0,0.7,0.3,0.7,0.8c0,0,0,0,0,0v1h-23.5L126.4,30.4L126.4,30.4L126.4,30.4z
	 M126.4,33.8H150v1.7h-23.6V33.8z M145.2,46.3H132v-3h13.1L145.2,46.3z M127.2,40.3c-0.4,0-0.7-0.3-0.7-0.7c0,0,0,0,0,0V38H150v1.5
	c0,0.4-0.3,0.7-0.7,0.7c0,0,0,0,0,0L127.2,40.3z"/>
<g>
	<defs>
		<path id="SVGID_11_" d="M110.9,51.7H90.4c-0.3,0-6.1,0.4-8.9-6.1V30c0-0.4-0.3-0.8-0.8-0.8h-5.3c-1,0-1.9,0.8-1.9,1.9v1.1h4.9
			v13.3c0,0.1,0,0.2,0,0.2c-0.4,2.6-1.8,4.8-3.8,6.4c-0.7,0.6-1,1.6-0.5,2.4l0.2,0.4c0.2,0.4,0.7,0.5,1,0.3c0,0,0,0,0,0
			c2.2-1.3,3.9-3.3,5-5.6c2.2,3.1,5.8,4.9,9.5,5c0.2,0,0.4,0,0.7,0h21.4c0.4,0,0.7-0.3,0.8-0.7c0,0,0,0,0,0v-0.4
			C112.8,52.6,112,51.7,110.9,51.7C110.9,51.7,110.9,51.7,110.9,51.7"/>
	</defs>
	<clipPath id="SVGID_12_">
		<use xlink:href="#SVGID_11_"  style="overflow:visible;"/>
	</clipPath>
	<g class="st7">
		<rect x="73.6" y="29.2" class="st1" width="39.3" height="26.3"/>
	</g>
</g>
<g>
	<defs>
		<polygon id="SVGID_13_" points="85.9,46.3 85.9,46.3 85.6,45.7 		"/>
	</defs>
	<clipPath id="SVGID_14_">
		<use xlink:href="#SVGID_13_"  style="overflow:visible;"/>
	</clipPath>
	<g class="st8">
		<rect x="85.6" y="45.7" class="st9" width="0.3" height="0.7"/>
	</g>
</g>
<g>
	<defs>
		<path id="SVGID_15_" d="M86.2,46.9L85.9,46c0,0,0,0,0,0.1L86.2,46.9L86.2,46.9L86.2,46.9z"/>
	</defs>
	<clipPath id="SVGID_16_">
		<use xlink:href="#SVGID_15_"  style="overflow:visible;"/>
	</clipPath>
	<g class="st10">
		<rect x="85.9" y="46" class="st9" width="0.4" height="1"/>
	</g>
</g>
<g>
	<defs>
		<path id="SVGID_17_" d="M30,0c16.6,0.1,30.1,13.7,30,30.3c0,7.2-2.7,14.2-7.4,19.6c-1.9-9.5-11.2-15.6-20.7-13.7
			c-3.2,0.6-6.2,2.2-8.5,4.4l-0.1,0.1v-6h0V24.5c-0.2-1.5,0.3-3,1.3-4.2l0.1-0.1l1.7-1.7c1.9-1.9,5.1-1.9,7,0c1.9,1.9,2,5,0.1,7
			l-0.1,0.1l-1.7,1.7l-0.1,0.1c-0.1,0.1-0.2,0.2-0.4,0.3L31,27.8l-2.6,2.6v0.2h7.8l1.2-1.2l0,0c3.9-4.2,3.8-10.7-0.2-14.8
			c-4-4-10.4-4.1-14.6-0.3l-0.1,0.1l0,0l-2,2.1l0,0c-0.2,0.2-0.4,0.5-0.6,0.7l-0.1,0.2l-9.2,9.3c-0.9,0.9-0.9,2.4,0.1,3.3
			c0.4,0.4,1,0.6,1.5,0.7h5.7v27h0v0.1C2.6,50.9-4.2,33.1,2.5,17.9C7.4,7.1,18.1,0,30,0z M35.4,41.1c6.7,0,12.2,5.4,12.3,12.2v1.2
			c-7.1,5.2-16,7-24.5,5c0-0.3,0-0.7-0.1-1v-5.2C23.2,46.6,28.7,41.2,35.4,41.1L35.4,41.1z"/>
	</defs>
	<clipPath id="SVGID_18_">
		<use xlink:href="#SVGID_17_"  style="overflow:visible;"/>
	</clipPath>
	<g class="st11">
		<rect class="st1" width="60" height="60.3"/>
	</g>
</g>
<line class="st12" x1="166.4" y1="20.4" x2="166.4" y2="56.2"/>
<path class="st1" d="M210,20.9v1.4c0,0.4-0.3,0.7-0.7,0.7l0,0h-6.1v10.8h8.2c0.4,0,0.7,0.3,0.7,0.7c0,0,0,0,0,0v1.4
	c0,0.4-0.3,0.7-0.7,0.7l0,0h-8.2v17.5c0,0.3-0.2,0.5-0.5,0.5h-2c-0.3,0-0.5-0.2-0.5-0.5c0,0,0,0,0,0V36.6h-11.8
	c-0.2,3.6-1,7.1-2.4,10.4c-1.6,3.5-4.3,6.3-7.7,8l-1.1-1.8c-0.2-0.4-0.1-0.9,0.3-1.2c0,0,0,0,0,0c2.7-1.6,4.9-4.1,6.2-7
	c0.9-2.7,1.5-5.5,1.8-8.4h-8.7c-0.4,0-0.7-0.3-0.7-0.7c0,0,0,0,0,0v-1.4c0-0.4,0.3-0.7,0.7-0.7l0,0h8.9c0-0.5,0-1,0-1.4V23H179
	c-0.4,0-0.7-0.3-0.7-0.7l0,0v-1.4c0-0.4,0.3-0.7,0.7-0.7l0,0h30.3C209.7,20.1,210,20.5,210,20.9C210,20.9,210,20.9,210,20.9z
	 M188.7,32.4c0,0.5,0,1,0,1.4h11.6V23h-11.6L188.7,32.4z"/>
<path class="st1" d="M218.5,35l-1.4-0.4c-0.6-0.2-1-0.8-0.8-1.5c0,0,0,0,0-0.1c1.2-3.6,1.9-7.4,2.1-11.2c0-0.7,0.6-1.2,1.3-1.1
	c0,0,0,0,0,0l1.4,0.1c-0.1,1.8-0.2,3.6-0.5,5.3h2.9v-7.8c0-0.3,0.3-0.6,0.6-0.6l0,0h1.6c0.3,0,0.6,0.3,0.6,0.6v7.8h2.5
	c0.5,0,1,0.4,1,1v1.9h-3.4v9.8c1.1-0.5,2.2-1.1,3.3-1.6v2c0,0.5-0.2,0.9-0.6,1.1c-0.9,0.4-1.7,0.9-2.6,1.3v12.8
	c0,0.3-0.3,0.6-0.6,0.6h-1.6c-0.3,0-0.6-0.3-0.6-0.6V42.8c-2.1,0.8-4.2,1.6-6.4,2.3l-0.4-1.7c-0.2-0.6,0.2-1.2,0.8-1.4c0,0,0,0,0,0
	c2-0.5,4-1.2,6-1.9V29h-3.4C219.7,31.1,219.1,33,218.5,35z M237.6,18.4c-0.4,2.1-0.9,4.1-1.5,5.9h15c0.4,0,0.8,0.4,0.8,0.8
	c0,13.1-0.2,21.2-0.6,24.3c-0.4,3.6-2.6,5.4-6.6,5.4c-0.5,0-1.2,0-2.2-0.1c-0.5,0-0.9-0.4-1-0.8L241,52c1.3,0.1,2.4,0.2,3.3,0.2
	c2.5,0,3.9-1.3,4.3-3.9c0.3-2.3,0.4-9.4,0.5-21.2h-2.8c-0.6,5.5-1.8,10.9-3.7,16.1c-2,4.4-4.8,8.3-8.4,11.4l-1.2-1.6
	c-0.3-0.4-0.3-1,0.1-1.4c2.9-2.7,5.3-6,7-9.6c1.8-4.8,3-9.9,3.6-15h-3.3c-1.6,8.9-4.7,15.3-9.3,19.3l-1.1-1.3
	c-0.4-0.5-0.4-1.2,0.1-1.7c3.7-3.6,6.3-9.1,7.7-16.3h-2.8c-0.9,2.3-2.2,4.5-3.7,6.4l-1.4-1.2c-0.4-0.3-0.5-1-0.1-1.4
	c2.4-3.7,4-7.8,4.8-12.1c0.1-0.6,0.8-1,1.3-0.8L237.6,18.4z"/>
<path class="st1" d="M293.8,32.6v1.7h-19.5c-3.8,7.7-7,13-9.8,16c7.3-0.4,14.6-1.1,21.9-2.1c-1.5-2.6-3.1-5.3-4.9-8.1l1.3-0.8
	c0.6-0.4,1.4-0.2,1.8,0.4c2.8,4.1,5.3,8.4,7.5,12.8c0.2,0.5,0.1,1.1-0.4,1.4l-1.8,1.3c-0.6-1.4-1.4-2.8-2.1-4.3
	c-8,1-16.6,1.8-25.9,2.5c-0.6,0-1.2-0.4-1.4-1l-0.5-1.9c0.2-0.1,0.5-0.2,0.7-0.3c2.6-2,6.1-7.2,10.3-15.9h-13.7v-2.2
	c0-0.4,0.3-0.7,0.7-0.7l0,0h34.6C293.3,31.4,293.8,32,293.8,32.6z M290.2,21.2v1.7h-29v-2.4c0-0.3,0.2-0.5,0.5-0.5l0,0H289
	C289.6,20,290.2,20.6,290.2,21.2C290.2,21.2,290.2,21.2,290.2,21.2L290.2,21.2z"/>
<path class="st1" d="M412,20.6v1.7h-15.1v15.4h15.5c0.7,0,1.2,0.6,1.2,1.2c0,0,0,0,0,0v1.6h-16.7v13.9c0,0.3-0.2,0.5-0.5,0.5
	c0,0,0,0,0,0h-2c-0.3,0-0.5-0.2-0.5-0.5V40.5h-16.3v-2.8h16.4V22.3h-14.7v-2.8h31.8C411.5,19.5,412,20,412,20.6z M387.8,34.6l-2,1
	c-1.3-3.2-2.7-6.3-4.4-9.3l1.8-0.9c0.5-0.3,1.2-0.1,1.5,0.5c1.2,2.4,2.4,4.9,3.6,7.6C388.3,33.9,388.1,34.4,387.8,34.6L387.8,34.6z
	 M409.6,26.7c-1.2,3.1-2.8,6-4.6,8.7l-2.6-1.3c1.9-3,3.5-6.1,4.8-9.4l2,0.9C409.6,25.8,409.7,26.3,409.6,26.7L409.6,26.7z"/>
<path class="st1" d="M419.9,30.8c3.3-1.5,7.4-5.7,12.1-12.5c0.3-0.4,0.8-0.6,1.3-0.5l2.2,0.7c-3.1,4.6-6.8,8.8-11,12.4
	c7.8-0.3,15.2-0.9,22.2-1.5c-1.5-2.1-3.1-4.2-4.8-6.1l1.8-0.9c0.5-0.2,1-0.1,1.4,0.3c3.2,3.8,6.1,7.9,8.8,12.1
	c0.2,0.4,0.1,0.8-0.3,1l-2.1,1c-1-1.7-2-3.3-3-4.8c-8.6,0.8-18.2,1.4-28.8,1.8l-0.5-1.8C419.2,31.4,419.5,31,419.9,30.8z M449.1,55
	h-2.2v-2.1h-21.2v2h-2.2c-0.4,0-0.8-0.3-0.8-0.8V38.8c0-0.4,0.3-0.7,0.8-0.7h25.7c0.4,0,0.7,0.3,0.8,0.7v15.5
	C449.8,54.7,449.5,55,449.1,55z M446.9,49.7v-8.5c0-0.2-0.2-0.4-0.4-0.4H426c-0.2,0-0.4,0.2-0.4,0.4c0,0,0,0,0,0v8.5
	c0,0.2,0.2,0.4,0.4,0.4c0,0,0,0,0,0h20.4C446.7,50.2,446.9,50,446.9,49.7z"/>
<path class="st1" d="M309,18.8c-0.9,2.8-2,5.4-3.4,7.9v26.9c0,0.3-0.3,0.6-0.6,0.6h-1.6c-0.3,0-0.6-0.3-0.6-0.6V31.4
	c-1.4,2-2.9,3.9-4.7,5.7l-0.7-2.3c-0.1-0.5,0-0.9,0.3-1.3c3.6-4.2,6.3-9,8.1-14.3c0.3-0.8,1.2-1.2,1.9-0.8L309,18.8L309,18.8z
	 M309,26.1v-1.6c0-0.3,0.3-0.6,0.6-0.6h10.4c-0.7-2.1-1.5-4.1-2.3-5.9l2.2-0.4c0.5-0.1,1,0.2,1.2,0.7c0.6,1.7,1.2,3.5,1.8,5.6h9.9
	c0.3,0,0.6,0.3,0.6,0.6v1.6c0,0.3-0.3,0.6-0.6,0.6h-14.9v3.6c0,1.1,0,2.2-0.1,3.3h11.4c0.9,0,1.6,0.7,1.6,1.6
	c-0.1,7.6-0.4,12.6-0.9,14.8c-0.7,2.5-2.3,3.8-4.9,3.9c-1.4,0-3.1-0.1-5-0.1c-0.5,0-1-0.4-1.2-0.9l-0.6-1.7c2.5,0.1,4.7,0.2,6.4,0.2
	c1.6-0.1,2.5-1.1,2.9-3c0.2-1.8,0.4-5.9,0.4-12.1h-10.3c-0.9,7.9-3.3,13.8-7.4,17.9l-1-0.9c-0.6-0.6-0.7-1.5-0.2-2.2
	c4-4.6,6-11.5,6.1-20.8v-3.6h-5.4C309.3,26.7,309,26.4,309,26.1L309,26.1z"/>
<path class="st1" d="M354.4,20.7l0.2-1.8c0.1-0.6,0.7-1.1,1.3-1l1.7,0.2c-0.1,0.9-0.2,1.7-0.3,2.6h13.6c0.3,0,0.6,0.3,0.6,0.6v1.4
	c0,0.3-0.3,0.6-0.6,0.6h-14c-0.2,0.9-0.4,1.7-0.6,2.6h10.8c0.3,0,0.6,0.3,0.6,0.6v18.2h4.7c0.3,0,0.6,0.3,0.6,0.6v1.5
	c0,0.3-0.3,0.6-0.6,0.6h-11.3c3.6,1.2,7,2.7,10.1,4.3c0.7,0.4,0.9,1.2,0.5,1.9l-0.7,1.1c-3.7-2.3-7.4-4.1-11.3-5.4l1.3-1.9h-11.4
	l1.7,1.9c-2.8,2-6.1,3.6-10.1,4.9c-0.7,0.2-1.4-0.1-1.7-0.7l-0.6-1.3c4.4-1.2,8-2.8,10.7-4.8h-11.1c-0.3,0-0.6-0.3-0.6-0.6v-1.5
	c0-0.3,0.3-0.6,0.6-0.6h5.3V26.3c0-0.3,0.3-0.6,0.6-0.6h9.2c0.2-0.9,0.4-1.7,0.6-2.6h-14.2c-0.3,0-0.6-0.3-0.6-0.6v-1.4
	c0-0.3,0.3-0.6,0.6-0.6L354.4,20.7L354.4,20.7z M365,30.6v-1.5c0-0.6-0.5-1-1-1h-16.4c-0.6,0-1,0.5-1,1v1.5H365L365,30.6z M365,35.2
	v-2.4h-18.5v2.4H365z M365,39.8v-2.4h-18.5v2.4H365z M365,43.5V42h-18.5v1.5c0,0.6,0.5,1,1,1h16.4C364.5,44.5,365,44,365,43.5
	L365,43.5z"/>
</svg>
