<?xml version="1.0" encoding="UTF-8"?>
<svg width="30px" height="30px" viewBox="0 0 30 30" version="1.1" xmlns="http://www.w3.org/2000/svg" xmlns:xlink="http://www.w3.org/1999/xlink">
    <title>user-filling备份</title>
    <g id="页面-1" stroke="none" stroke-width="1" fill="none" fill-rule="evenodd">
        <g id="个人中心" transform="translate(-934.000000, -536.000000)" fill="#004588" fill-rule="nonzero">
            <g id="user-filling备份" transform="translate(934.000000, 536.000000)">
                <rect id="矩形" opacity="0" x="0" y="0" width="30" height="30"></rect>
                <path d="M15,2.18750977 C7.93749023,2.18750977 2.18750977,7.93749023 2.18750977,15 C2.18750977,22.0625098 7.93749023,27.8124902 15,27.8124902 C22.0625098,27.8124902 27.8124902,22.0625098 27.8124902,15 C27.8124902,7.93749023 22.0625098,2.18750977 15,2.18750977 Z M15,6.87500977 C17.0625,6.87500977 18.75,8.56250977 18.75,10.6250098 C18.75,12.6875098 17.0625,14.3750098 15,14.3750098 C12.9375,14.3750098 11.25,12.6875098 11.25,10.6250098 C11.25,8.56250977 12.9375,6.87500977 15,6.87500977 Z M21.9375,21.75 C21.2499902,22.6875 18.5000098,24.6875098 15,24.6875098 C11.4999902,24.6875098 8.75000977,22.6875 8.0625,21.75 C7.81250977,21.4374902 7.74999023,21.1250098 7.81250977,20.8125098 C8.68749023,17.5625098 11.625,15.3125098 15,15.3125098 C18.375,15.3125098 21.3125098,17.5625098 22.1874902,20.8125098 C22.2500098,21.1250098 22.1874902,21.4374902 21.9375,21.75 L21.9375,21.75 Z" id="形状"></path>
            </g>
        </g>
    </g>
</svg>